:SAMPLES-PER-SECOND 30
:FULLY-SPECIFIED
:DEGREES
470
root  -11.3222 35.4819 18.5412 175.435 -12.0936 -179.356
RightUpLeg  -10.308 -7.37553 -15.7143
RightLeg  43.3561 -0.949775 -1.2497
RightFoot  -25.7697 3.78686 30.6447
RightToes  -5.8209e-011 0 -3.6325e-017
Spine  25.8371 -0.778151 12.7881
Spine1  5.40956 3.21433 -3.70488
HEad  -20.5496 -17.5292 -2.1179
LeftShoulder1  1.14151 -2.13348 -13.2364
LeftArm  -6.72727 4.22456 -49.4689
LeftForeArm  10.0076 -58.5354 -17.8677
LeftHand  -1.42385 -3.19495 19.3303
RightShoulder  0.776025 0.957451 10.1618
RightArm  13.2784 0.27412 53.7095
RightForeArm  43.7146 78.0866 88.1317
RightHand  -1.1467 1.53021 -19.2222
LeftUpLeg  -25.3817 5.45253 17.6259
LeftLeg  47.6055 1.37345 2.08251
LeftFoot  -13.455 -0.206881 -15.4773
LeftToes  -3.91115e-011 -2.2622e-010 9.51032e-012
471
root  -11.6043 34.5855 18.6592 173.834 -11.7569 -178.688
RightUpLeg  -11.3421 -7.65656 -16.3368
RightLeg  48.6016 0.154738 -0.158204
RightFoot  -28.1821 4.40295 30.3839
RightToes  -5.8209e-011 0 -3.6325e-017
Spine  27.7592 -1.29208 14.023
Spine1  7.20141 3.01027 -2.38228
HEad  -22.4992 -15.7358 -4.63562
LeftShoulder1  1.37209 -2.95264 -14.3483
LeftArm  -8.19958 3.01329 -49.5726
LeftForeArm  3.7343 -48.7291 -12.5525
LeftHand  -1.7167 -3.50165 22.432
RightShoulder  0.888876 1.44497 10.7786
RightArm  12.3219 3.83853 53.2186
RightForeArm  16.4458 76.7586 65.1634
RightHand  -1.63184 2.92262 -22.7516
LeftUpLeg  -27.8319 5.56278 20.0999
LeftLeg  53.81 1.29931 2.43072
LeftFoot  -14.1787 -0.305241 -15.6549
LeftToes  -3.91115e-011 -2.2622e-010 9.51032e-012
472
root  -12.0908 33.8535 18.5852 173.431 -11.6018 -178.425
RightUpLeg  -12.2983 -7.51489 -17.4683
RightLeg  52.1081 0.884627 0.840629
RightFoot  -29.9877 4.97754 30.8638
RightToes  -5.8209e-011 0 -3.6325e-017
Spine  28.334 -1.55954 14.9479
Spine1  8.7101 2.74509 -0.936183
HEad  -23.4088 -12.9352 -6.83812
LeftShoulder1  1.55753 -3.40008 -15.7909
LeftArm  -6.90204 2.84256 -50.3037
LeftForeArm  -1.46076 -36.9909 -8.319
LeftHand  -1.87665 -3.72823 23.8874
RightShoulder  1.07797 2.07046 12.3138
RightArm  11.4941 7.02743 53.4204
RightForeArm  -9.0864 72.8194 44.411
RightHand  -2.09949 3.99793 -25.8246
LeftUpLeg  -30.3889 5.52176 22.4664
LeftLeg  57.1913 1.69321 3.36784
LeftFoot  -14.6278 -0.364929 -15.6652
LeftToes  -3.91115e-011 -2.2622e-010 9.51032e-012
473
root  -12.7825 33.276 18.3382 173.383 -11.5077 -178.42
RightUpLeg  -12.4551 -6.6501 -18.9875
RightLeg  53.9662 1.29331 1.50658
RightFoot  -30.8867 5.59019 32.8489
RightToes  -5.8209e-011 0 -3.6325e-017
Spine  28.9508 -1.6596 16.0914
Spine1  9.22365 2.87356 -0.236299
HEad  -23.7091 -10.3221 -8.52563
LeftShoulder1  1.66261 -3.46931 -17.1846
LeftArm  -5.60669 3.81874 -51.2254
LeftForeArm  -0.363066 -24.5013 -6.71079
LeftHand  -1.64786 -3.61794 21.2373
RightShoulder  1.27274 2.56245 14.1401
RightArm  11.2348 8.62478 54.5827
RightForeArm  -24.0034 67.5694 31.8719
RightHand  -2.44638 4.77685 -27.7077
LeftUpLeg  -32.3485 5.6279 24.7839
LeftLeg  57.5182 1.68553 3.40567
LeftFoot  -12.9886 -0.147453 -15.2958
LeftToes  -3.91115e-011 -2.2622e-010 9.51032e-012
474
root  -13.693 32.9069 17.9576 173.246 -11.3995 -178.446
RightUpLeg  -11.4862 -5.27199 -20.6336
RightLeg  54.0916 1.06873 1.18911
RightFoot  -30.8727 5.93997 34.7409
RightToes  -5.8209e-011 0 -3.6325e-017
Spine  29.9514 -1.5468 17.7449
Spine1  9.10244 3.64193 -0.21283
HEad  -24.0649 -9.16836 -9.61188
LeftShoulder1  1.73455 -3.49491 -18.1983
LeftArm  -17.7333 6.01045 -51.2922
LeftForeArm  20.2272 -10.9593 -10.6852
LeftHand  -1.17687 -3.39962 15.714
RightShoulder  1.42454 2.9162 15.4665
RightArm  12.3275 8.71982 56.4207
RightForeArm  -31.4429 63.2827 25.914
RightHand  -2.57039 5.13565 -28.0918
LeftUpLeg  -33.2249 5.51277 27.1641
LeftLeg  54.5263 1.40345 2.62724
LeftFoot  -7.52018 0.588767 -15.8953
LeftToes  -3.91115e-011 -2.2622e-010 9.51032e-012
475
root  -14.8947 32.7859 17.4221 173.566 -11.5527 -178.488
RightUpLeg  -9.59694 -3.77999 -22.4129
RightLeg  52.0347 0.409146 0.180803
RightFoot  -30.1661 5.92827 35.887
RightToes  -5.8209e-011 0 -3.6325e-017
Spine  30.3349 -1.12591 20.0825
Spine1  8.74049 4.99171 -0.646719
HEad  -24.5395 -9.92062 -10.1067
LeftShoulder1  1.83154 -3.72225 -18.8077
LeftArm  -31.2967 9.36277 -50.6902
LeftForeArm  43.7693 0.683215 -11.1294
LeftHand  -0.80504 -3.31009 11.0066
RightShoulder  1.5413 3.23818 16.1999
RightArm  14.8177 8.26953 58.6348
RightForeArm  -36.3389 60.4004 23.0454
RightHand  -2.45352 4.94843 -27.3255
LeftUpLeg  -33.3765 4.87347 29.2104
LeftLeg  48.4185 0.853561 1.48381
LeftFoot  0.29325 1.89726 -18.4097
LeftToes  -3.91115e-011 -2.2622e-010 9.51032e-012
